<?xml version="1.0" encoding="utf-8"?>
<!-- Generator: Adobe Illustrator 19.1.0, SVG Export Plug-In . SVG Version: 6.00 Build 0)  -->
<svg version="1.1" id="Layer_1" xmlns="http://www.w3.org/2000/svg" xmlns:xlink="http://www.w3.org/1999/xlink" x="0px" y="0px"
	 viewBox="0 0 260 80" style="enable-background:new 0 0 260 80;" xml:space="preserve">
<style type="text/css">
	.st0{fill:#FFFFFF;}
</style>
<g>
	<g>
		<path class="st0" d="M37.2,25.1c13.1,0.9,16.3,2.6,16.3,12.7c0,7.3,0.3,14.5-19.2,14.5c-11.3,0-18.7-0.2-18.7-14.7H27
			c0,4.6,1.7,5.1,7.4,5.1c5.5,0,7.4-0.4,7.4-4.1c0-3.8-0.6-3.8-6.2-4.1L33,34.3c-10.9-0.8-17.3-0.7-17.3-13.4
			c0-12.7,7.1-13.5,18.7-13.5c9.7,0,17.9,0.2,17.9,12.4v1.8H41c0-4.5-1.9-4.5-6.6-4.5c-6.4,0-6.9,1.3-6.9,3.8c0,3.5,1.7,3.7,4.8,3.9
			L37.2,25.1z"/>
		<path class="st0" d="M63.5,36.2V23.7C63.5,10,72,7.5,84,7.5c12,0,20.4,2.6,20.4,16.2v12.5c0,13.6-8.5,16.2-20.4,16.2
			C72,52.4,63.5,49.8,63.5,36.2z M92.3,34.9v-10c0-6.5-2.2-7.2-8.3-7.2c-6.1,0-8.1,0.6-8.3,7.2v10c0.2,6.6,2.2,7.2,8.3,7.2
			C90.1,42.1,92.3,41.5,92.3,34.9z"/>
		<path class="st0" d="M115.6,7.8h22.7c10.2,0.2,15.2,2.4,15.2,13.4c0,7.4,0,11.7-8.4,13.6v0.5c4.8,0.2,8,2.8,8,7.8V52h-11.8v-6.2
			c0.1-3.3-1.3-5.5-4.8-5.5h-9.1V52h-11.8V7.8z M136.5,30c5.1,0,4.9-1.9,4.9-6.9c0-3.9-1-5.1-4.9-5.1h-9.1v12H136.5z"/>
		<path class="st0" d="M175.6,44.4l-2.2,7.6h-12.3l13.3-44.2h17.9L205.8,52h-12l-2.3-7.6H175.6z M183.6,16.6h-0.1l-5.4,19.2h11
			L183.6,16.6z"/>
		<path class="st0" d="M232.4,52h-11.8V18.1h-11.3V7.8h35v10.3h-11.9V52z"/>
	</g>
	<g>
		<path class="st0" d="M31.9,62.1l-3.4,10.2h-2.2l-2.6-8.6l-2.6,8.6h-2.2l-3.4-10.2h1.9l2.6,8.6l2.6-8.6h2.1l2.6,8.6l2.6-8.6H31.9z"
			/>
		<path class="st0" d="M47.2,72.3h-1.7v-4.6h-8.2v4.6h-1.7V62.1h1.7v4.2h8.2v-4.2h1.7V72.3z"/>
		<path class="st0" d="M63,72.3H52.3V62.1h10.3v1.5H54v2.6h6v1.5h-6v3h9V72.3z"/>
		<path class="st0" d="M78,72.3H67.2V62.1h10.3v1.5h-8.6v2.6h6v1.5h-6v3h9V72.3z"/>
		<path class="st0" d="M91.8,72.3h-9.6V62.1h1.7v8.7h7.9V72.3z"/>
		<path class="st0" d="M104.5,64.5c-1.5-0.8-3.1-1.2-4.6-1.2c-1,0-1.8,0.1-2.4,0.4c-0.6,0.2-0.8,0.6-0.8,1c0,0.5,0.3,0.8,0.9,1
			c0.4,0.2,1.1,0.3,2.1,0.3c1.4,0.1,2.3,0.2,2.8,0.2c1.3,0.2,2.2,0.5,2.8,0.9c0.6,0.5,0.9,1.1,0.9,2c0,1.1-0.5,1.9-1.4,2.5
			c-1,0.6-2.3,0.9-4.1,0.9c-2.6,0-4.6-0.6-6.1-1.7l0.9-1.2c1.6,1,3.3,1.5,5.2,1.5c1.2,0,2.1-0.2,2.8-0.5c0.6-0.3,0.9-0.8,0.9-1.3
			c0-0.7-0.4-1.1-1.2-1.3c-0.4-0.1-1.6-0.2-3.5-0.4c-1.7-0.1-2.9-0.3-3.5-0.7c-0.8-0.4-1.2-1.1-1.2-2c0-1,0.5-1.7,1.4-2.3
			c0.9-0.6,2.2-0.8,3.8-0.8c2.2,0,4.1,0.5,5.5,1.5L104.5,64.5z"/>
		<path class="st0" d="M127.8,72.3H126l-1.2-2.3h-6.9l-1.2,2.3h-1.9l5.4-10.2h2.1L127.8,72.3z M124,68.5l-2.6-5l-2.6,5H124z"/>
		<path class="st0" d="M143.1,72.3H141l-7.8-8.4v8.4h-1.7V62.1h2.1l7.8,8.4v-8.4h1.7V72.3z"/>
		<path class="st0" d="M154.7,62.1c1.8,0,3.2,0.5,4.2,1.4c1,0.9,1.6,2.2,1.6,3.8c0,1.5-0.6,2.7-1.7,3.6c-1,0.9-2.3,1.4-3.8,1.4h-6.8
			V62.1H154.7z M155.1,70.8c1,0,1.9-0.3,2.5-1c0.7-0.7,1-1.5,1-2.5c0-1.1-0.4-2-1.1-2.7c-0.7-0.7-1.6-1-2.8-1h-4.9v7.2H155.1z"/>
		<path class="st0" d="M180.9,63.6H176v8.7h-1.7v-8.7h-4.9v-1.5h11.5V63.6z"/>
		<path class="st0" d="M186.3,72.3h-1.7V62.1h1.7V72.3z"/>
		<path class="st0" d="M203,72.3h-2l-2.8-3.9h-5.2v3.9h-1.7V62.1h8.1c1.1,0,1.9,0.3,2.5,0.9c0.6,0.6,0.9,1.4,0.9,2.4
			c0,0.9-0.2,1.6-0.7,2.1c-0.5,0.5-1.1,0.8-1.9,0.9L203,72.3z M199.2,66.9c1.3,0,2-0.5,2-1.6c0-1.1-0.7-1.7-2.1-1.7h-6v3.3H199.2z"
			/>
		<path class="st0" d="M218,72.3h-10.7V62.1h10.3v1.5H209v2.6h6v1.5h-6v3h9V72.3z"/>
		<path class="st0" d="M231.3,64.5c-1.5-0.8-3.1-1.2-4.6-1.2c-1,0-1.8,0.1-2.4,0.4c-0.6,0.2-0.8,0.6-0.8,1c0,0.5,0.3,0.8,0.9,1
			c0.4,0.2,1.1,0.3,2.1,0.3c1.4,0.1,2.3,0.2,2.8,0.2c1.3,0.2,2.2,0.5,2.8,0.9c0.6,0.5,0.9,1.1,0.9,2c0,1.1-0.5,1.9-1.4,2.5
			c-1,0.6-2.3,0.9-4.1,0.9c-2.6,0-4.6-0.6-6.1-1.7l0.9-1.2c1.6,1,3.3,1.5,5.2,1.5c1.2,0,2.1-0.2,2.8-0.5c0.6-0.3,0.9-0.8,0.9-1.3
			c0-0.7-0.4-1.1-1.2-1.3c-0.4-0.1-1.6-0.2-3.5-0.4c-1.7-0.1-2.9-0.3-3.5-0.7c-0.8-0.4-1.2-1.1-1.2-2c0-1,0.5-1.7,1.4-2.3
			c0.9-0.6,2.2-0.8,3.8-0.8c2.2,0,4.1,0.5,5.5,1.5L231.3,64.5z"/>
	</g>
</g>
</svg>
